<svg xmlns="http://www.w3.org/2000/svg" viewBox="0 0 100 100" width="100" height="100"><circle cx="50" cy="50" r="50" fill="#FFD700"/><circle cx="50" cy="40" r="18" fill="#FFFBF0"/><circle cx="44" cy="37" r="2" fill="#333"/><circle cx="56" cy="37" r="2" fill="#333"/><path d="M44 44 Q50 48 56 44" stroke="#333" fill="none" stroke-width="1.5"/><path d="M30 22 Q32 16 38 14 Q44 12 50 14 Q56 12 62 14 Q68 16 70 22" fill="none" stroke="#DAA520" stroke-width="2.5"/><path d="M28 24 Q30 20 34 18" stroke="#DAA520" fill="none" stroke-width="2"/><path d="M72 24 Q70 20 66 18" stroke="#DAA520" fill="none" stroke-width="2"/><circle cx="30" cy="24" r="2" fill="#DAA520"/><circle cx="70" cy="24" r="2" fill="#DAA520"/><path d="M32 32 Q35 18 50 22 Q65 18 68 32" fill="#8B7355"/><text x="50" y="70" text-anchor="middle" font-size="7" fill="#333" font-family="serif" font-style="italic">SPQR</text><text x="50" y="92" text-anchor="middle" font-size="8" fill="#333" font-family="sans-serif">MA</text></svg>