<svg xmlns="http://www.w3.org/2000/svg" viewBox="0 0 100 100" width="100" height="100"><circle cx="50" cy="50" r="50" fill="#FFD700"/><circle cx="50" cy="38" r="18" fill="#FFFBF0"/><circle cx="44" cy="35" r="2" fill="#333"/><circle cx="56" cy="35" r="2" fill="#333"/><path d="M44 42 Q50 47 56 42" stroke="#333" fill="none" stroke-width="1.5"/><path d="M35 25 Q38 15 50 18 Q62 15 65 25" stroke="#8B4513" fill="none" stroke-width="3"/><path d="M32 28 Q30 18 38 12 Q50 8 62 12 Q70 18 68 28" fill="#8B4513"/><rect x="42" y="58" width="4" height="18" rx="1" fill="#FFFBF0" stroke="#333" stroke-width="1"/><circle cx="44" cy="72" r="5" fill="none" stroke="#333" stroke-width="1.5"/><circle cx="44" cy="72" r="2" fill="#50C878"/><rect x="54" y="60" width="3" height="14" rx="1" fill="#FFFBF0" stroke="#333" stroke-width="1"/><circle cx="55.5" cy="71" r="4" fill="none" stroke="#333" stroke-width="1.5"/><circle cx="55.5" cy="71" r="1.5" fill="#87CEEB"/><text x="50" y="92" text-anchor="middle" font-size="8" fill="#333" font-family="sans-serif">MC</text></svg>