<svg xmlns="http://www.w3.org/2000/svg" viewBox="0 0 100 100" width="100" height="100"><circle cx="50" cy="50" r="50" fill="#FFD700"/><circle cx="50" cy="38" r="18" fill="#FFFBF0"/><circle cx="44" cy="35" r="2" fill="#333"/><circle cx="56" cy="35" r="2" fill="#333"/><path d="M44 42 Q50 46 56 42" stroke="#333" fill="none" stroke-width="1.5"/><rect x="40" y="30" width="8" height="5" rx="1" fill="none" stroke="#333" stroke-width="1.5"/><rect x="52" y="30" width="8" height="5" rx="1" fill="none" stroke="#333" stroke-width="1.5"/><path d="M33 25 Q38 15 50 18 Q62 15 67 25" fill="#696969"/><rect x="35" y="60" width="30" height="22" rx="2" fill="#FFFBF0" stroke="#333" stroke-width="1"/><polyline points="38,78 44,68 50,74 56,64 62,72" stroke="#E6A800" fill="none" stroke-width="2"/><line x1="38" y1="78" x2="62" y2="78" stroke="#333" stroke-width="0.5"/><text x="50" y="92" text-anchor="middle" font-size="8" fill="#333" font-family="sans-serif">PD</text></svg>