<svg xmlns="http://www.w3.org/2000/svg" viewBox="0 0 100 100" width="100" height="100"><circle cx="50" cy="50" r="50" fill="#FFD700"/><circle cx="50" cy="38" r="18" fill="#FFFBF0"/><circle cx="44" cy="35" r="2" fill="#333"/><circle cx="56" cy="35" r="2" fill="#333"/><path d="M44 42 Q50 47 56 42" stroke="#333" fill="none" stroke-width="1.5"/><path d="M25 35 Q28 10 50 14 Q72 10 75 35" fill="#1a1a2e"/><path d="M25 35 Q22 40 28 42" stroke="#1a1a2e" fill="none" stroke-width="3"/><circle cx="50" cy="70" r="12" fill="none" stroke="#333" stroke-width="2"/><circle cx="50" cy="70" r="6" fill="none" stroke="#333" stroke-width="1.5"/><line x1="50" y1="58" x2="50" y2="64" stroke="#333" stroke-width="1.5"/><line x1="50" y1="76" x2="50" y2="82" stroke="#333" stroke-width="1.5"/><line x1="38" y1="70" x2="44" y2="70" stroke="#333" stroke-width="1.5"/><line x1="56" y1="70" x2="62" y2="70" stroke="#333" stroke-width="1.5"/><text x="50" y="92" text-anchor="middle" font-size="8" fill="#333" font-family="sans-serif">AL</text></svg>