<svg xmlns="http://www.w3.org/2000/svg" viewBox="0 0 100 100" width="100" height="100"><circle cx="50" cy="50" r="50" fill="#FFD700"/><circle cx="50" cy="38" r="18" fill="#FFFBF0"/><circle cx="44" cy="35" r="2" fill="#333"/><circle cx="56" cy="35" r="2" fill="#333"/><path d="M44 42 Q50 47 56 42" stroke="#333" fill="none" stroke-width="1.5"/><path d="M26 32 Q30 10 50 14 Q70 10 74 32" fill="#5C4033"/><path d="M26 32 Q22 42 30 45" stroke="#5C4033" fill="none" stroke-width="3"/><path d="M74 32 Q78 42 70 45" stroke="#5C4033" fill="none" stroke-width="3"/><path d="M55 58 Q58 55 60 60 Q62 65 58 68 Q56 72 54 68 Q50 75 48 70" fill="none" stroke="#8B4513" stroke-width="1.5"/><line x1="55" y1="68" x2="45" y2="85" stroke="#8B4513" stroke-width="1.5"/><text x="50" y="96" text-anchor="middle" font-size="8" fill="#333" font-family="sans-serif">VW</text></svg>